static pose
version=1
nRows=1
nColumns=459
inDegrees=no
endheader
time	/jointset/ground_pelvis/pelvis_tilt/value	/jointset/ground_pelvis/pelvis_tilt/speed	/jointset/ground_pelvis/pelvis_list/value	/jointset/ground_pelvis/pelvis_list/speed	/jointset/ground_pelvis/pelvis_rotation/value	/jointset/ground_pelvis/pelvis_rotation/speed	/jointset/ground_pelvis/pelvis_tx/value	/jointset/ground_pelvis/pelvis_tx/speed	/jointset/ground_pelvis/pelvis_ty/value	/jointset/ground_pelvis/pelvis_ty/speed	/jointset/ground_pelvis/pelvis_tz/value	/jointset/ground_pelvis/pelvis_tz/speed	/jointset/L5_S1_IVDjnt/L5_S1_FE/value	/jointset/L5_S1_IVDjnt/L5_S1_FE/speed	/jointset/L5_S1_IVDjnt/L5_S1_LB/value	/jointset/L5_S1_IVDjnt/L5_S1_LB/speed	/jointset/L5_S1_IVDjnt/L5_S1_AR/value	/jointset/L5_S1_IVDjnt/L5_S1_AR/speed	/jointset/L4_L5_IVDjnt/L4_L5_FE/value	/jointset/L4_L5_IVDjnt/L4_L5_FE/speed	/jointset/L4_L5_IVDjnt/L4_L5_LB/value	/jointset/L4_L5_IVDjnt/L4_L5_LB/speed	/jointset/L4_L5_IVDjnt/L4_L5_AR/value	/jointset/L4_L5_IVDjnt/L4_L5_AR/speed	/jointset/T12_L1_IVDjnt/T12_L1_FE/value	/jointset/T12_L1_IVDjnt/T12_L1_FE/speed	/jointset/T12_L1_IVDjnt/T12_L1_LB/value	/jointset/T12_L1_IVDjnt/T12_L1_LB/speed	/jointset/T12_L1_IVDjnt/T12_L1_AR/value	/jointset/T12_L1_IVDjnt/T12_L1_AR/speed	/jointset/T11_T12_IVDjnt/T11_T12_FE/value	/jointset/T11_T12_IVDjnt/T11_T12_FE/speed	/jointset/T11_T12_IVDjnt/T11_T12_LB/value	/jointset/T11_T12_IVDjnt/T11_T12_LB/speed	/jointset/T11_T12_IVDjnt/T11_T12_AR/value	/jointset/T11_T12_IVDjnt/T11_T12_AR/speed	/jointset/T10_T11_IVDjnt/T10_T11_FE/value	/jointset/T10_T11_IVDjnt/T10_T11_FE/speed	/jointset/T10_T11_IVDjnt/T10_T11_LB/value	/jointset/T10_T11_IVDjnt/T10_T11_LB/speed	/jointset/T10_T11_IVDjnt/T10_T11_AR/value	/jointset/T10_T11_IVDjnt/T10_T11_AR/speed	/jointset/T9_T10_IVDjnt/T9_T10_FE/value	/jointset/T9_T10_IVDjnt/T9_T10_FE/speed	/jointset/T9_T10_IVDjnt/T9_T10_LB/value	/jointset/T9_T10_IVDjnt/T9_T10_LB/speed	/jointset/T9_T10_IVDjnt/T9_T10_AR/value	/jointset/T9_T10_IVDjnt/T9_T10_AR/speed	/jointset/T8_T9_IVDjnt/T8_T9_FE/value	/jointset/T8_T9_IVDjnt/T8_T9_FE/speed	/jointset/T8_T9_IVDjnt/T8_T9_LB/value	/jointset/T8_T9_IVDjnt/T8_T9_LB/speed	/jointset/T8_T9_IVDjnt/T8_T9_AR/value	/jointset/T8_T9_IVDjnt/T8_T9_AR/speed	/jointset/T1_T2_IVDjnt/T1_T2_FE/value	/jointset/T1_T2_IVDjnt/T1_T2_FE/speed	/jointset/T1_T2_IVDjnt/T1_T2_LB/value	/jointset/T1_T2_IVDjnt/T1_T2_LB/speed	/jointset/T1_T2_IVDjnt/T1_T2_AR/value	/jointset/T1_T2_IVDjnt/T1_T2_AR/speed	/jointset/T1_head_neck/T1_head_neck_FE/value	/jointset/T1_head_neck/T1_head_neck_FE/speed	/jointset/T1_head_neck/T1_head_neck_LB/value	/jointset/T1_head_neck/T1_head_neck_LB/speed	/jointset/T1_head_neck/T1_head_neck_AR/value	/jointset/T1_head_neck/T1_head_neck_AR/speed	/jointset/hip_r/hip_flexion_r/value	/jointset/hip_r/hip_flexion_r/speed	/jointset/hip_r/hip_adduction_r/value	/jointset/hip_r/hip_adduction_r/speed	/jointset/hip_r/hip_rotation_r/value	/jointset/hip_r/hip_rotation_r/speed	/jointset/knee_r/knee_angle_r/value	/jointset/knee_r/knee_angle_r/speed	/jointset/knee_r/knee_angle_y_r/value	/jointset/knee_r/knee_angle_y_r/speed	/jointset/knee_r/knee_angle_x_r/value	/jointset/knee_r/knee_angle_x_r/speed	/jointset/ankle_r/ankle_angle_r/value	/jointset/ankle_r/ankle_angle_r/speed	/jointset/subtalar_r/subtalar_angle_r/value	/jointset/subtalar_r/subtalar_angle_r/speed	/jointset/mtp_r/mtp_angle_r/value	/jointset/mtp_r/mtp_angle_r/speed	/jointset/hip_l/hip_flexion_l/value	/jointset/hip_l/hip_flexion_l/speed	/jointset/hip_l/hip_adduction_l/value	/jointset/hip_l/hip_adduction_l/speed	/jointset/hip_l/hip_rotation_l/value	/jointset/hip_l/hip_rotation_l/speed	/jointset/knee_l/knee_angle_l/value	/jointset/knee_l/knee_angle_l/speed	/jointset/knee_l/knee_angle_y_l/value	/jointset/knee_l/knee_angle_y_l/speed	/jointset/knee_l/knee_angle_x_l/value	/jointset/knee_l/knee_angle_x_l/speed	/jointset/ankle_l/ankle_angle_l/value	/jointset/ankle_l/ankle_angle_l/speed	/jointset/subtalar_l/subtalar_angle_l/value	/jointset/subtalar_l/subtalar_angle_l/speed	/jointset/mtp_l/mtp_angle_l/value	/jointset/mtp_l/mtp_angle_l/speed	/jointset/C7_skull/skull_z/value	/jointset/C7_skull/skull_z/speed	/jointset/C7_skull/skull_y/value	/jointset/C7_skull/skull_y/speed	/jointset/C7_skull/skull_x/value	/jointset/C7_skull/skull_x/speed	/jointset/sternoclavicular/sternoclavicular_r2/value	/jointset/sternoclavicular/sternoclavicular_r2/speed	/jointset/sternoclavicular/sternoclavicular_r3/value	/jointset/sternoclavicular/sternoclavicular_r3/speed	/jointset/unrotscap/unrotscap_r3/value	/jointset/unrotscap/unrotscap_r3/speed	/jointset/unrotscap/unrotscap_r2/value	/jointset/unrotscap/unrotscap_r2/speed	/jointset/acromioclavicular/acromioclavicular_r2/value	/jointset/acromioclavicular/acromioclavicular_r2/speed	/jointset/acromioclavicular/acromioclavicular_r3/value	/jointset/acromioclavicular/acromioclavicular_r3/speed	/jointset/acromioclavicular/acromioclavicular_r1/value	/jointset/acromioclavicular/acromioclavicular_r1/speed	/jointset/unrothum/unrothum_r1/value	/jointset/unrothum/unrothum_r1/speed	/jointset/unrothum/unrothum_r3/value	/jointset/unrothum/unrothum_r3/speed	/jointset/unrothum/unrothum_r2/value	/jointset/unrothum/unrothum_r2/speed	/jointset/shoulder0/elv_angle/value	/jointset/shoulder0/elv_angle/speed	/jointset/shoulder1/shoulder_elv/value	/jointset/shoulder1/shoulder_elv/speed	/jointset/shoulder1/shoulder1_r2/value	/jointset/shoulder1/shoulder1_r2/speed	/jointset/shoulder2/shoulder_rot/value	/jointset/shoulder2/shoulder_rot/speed	/jointset/elbow/elbow_flexion/value	/jointset/elbow/elbow_flexion/speed	/jointset/elbow/elbow_x/value	/jointset/elbow/elbow_x/speed	/jointset/elbow/elbow_y/value	/jointset/elbow/elbow_y/speed	/jointset/radioulnar/pro_sup/value	/jointset/radioulnar/pro_sup/speed	/jointset/radiocarpal/deviation/value	/jointset/radiocarpal/deviation/speed	/jointset/radiocarpal/flexion/value	/jointset/radiocarpal/flexion/speed	/jointset/CMC1a/thumb_abd/value	/jointset/CMC1a/thumb_abd/speed	/jointset/CMC1a/thumb_flex/value	/jointset/CMC1a/thumb_flex/speed	/jointset/MCP/TCP2M_lateral/value	/jointset/MCP/TCP2M_lateral/speed	/jointset/MCP/TCP2M_flex/value	/jointset/MCP/TCP2M_flex/speed	/jointset/IP/TCP2M2_flex/value	/jointset/IP/TCP2M2_flex/speed	/jointset/2MCP/MCP2_lateral/value	/jointset/2MCP/MCP2_lateral/speed	/jointset/2MCP/MCP2_flex/value	/jointset/2MCP/MCP2_flex/speed	/jointset/2prox-midph/PIP_flex/value	/jointset/2prox-midph/PIP_flex/speed	/jointset/2mid-distph/DIP_flex/value	/jointset/2mid-distph/DIP_flex/speed	/jointset/3MCP/MCP2M_lateral/value	/jointset/3MCP/MCP2M_lateral/speed	/jointset/3MCP/MCP2M_flex/value	/jointset/3MCP/MCP2M_flex/speed	/jointset/3prox-midph/MPIP_flex/value	/jointset/3prox-midph/MPIP_flex/speed	/jointset/3mid-distph/MDIP_flex/value	/jointset/3mid-distph/MDIP_flex/speed	/jointset/4MCP/RCP2M_lateral/value	/jointset/4MCP/RCP2M_lateral/speed	/jointset/4MCP/RCP2M_flex/value	/jointset/4MCP/RCP2M_flex/speed	/jointset/4prox-midph/RPIP_flex/value	/jointset/4prox-midph/RPIP_flex/speed	/jointset/4mid-distph/RDIP_flex/value	/jointset/4mid-distph/RDIP_flex/speed	/jointset/5MCP/LCP2M_lateral/value	/jointset/5MCP/LCP2M_lateral/speed	/jointset/5MCP/LCP2M_flex/value	/jointset/5MCP/LCP2M_flex/speed	/jointset/5prox-midph/LPIP_flex/value	/jointset/5prox-midph/LPIP_flex/speed	/jointset/5mid-distph/LDIP_flex/value	/jointset/5mid-distph/LDIP_flex/speed	/jointset/sternoclavicular_l/sternoclavicular_r2_l/value	/jointset/sternoclavicular_l/sternoclavicular_r2_l/speed	/jointset/sternoclavicular_l/sternoclavicular_r3_l/value	/jointset/sternoclavicular_l/sternoclavicular_r3_l/speed	/jointset/unrotscap_l/unrotscap_r3_l/value	/jointset/unrotscap_l/unrotscap_r3_l/speed	/jointset/unrotscap_l/unrotscap_r2_l/value	/jointset/unrotscap_l/unrotscap_r2_l/speed	/jointset/acromioclavicular_l/acromioclavicular_r2_l/value	/jointset/acromioclavicular_l/acromioclavicular_r2_l/speed	/jointset/acromioclavicular_l/acromioclavicular_r3_l/value	/jointset/acromioclavicular_l/acromioclavicular_r3_l/speed	/jointset/acromioclavicular_l/acromioclavicular_r1_l/value	/jointset/acromioclavicular_l/acromioclavicular_r1_l/speed	/jointset/unrothum_l/unrothum_r1_l/value	/jointset/unrothum_l/unrothum_r1_l/speed	/jointset/unrothum_l/unrothum_r3_l/value	/jointset/unrothum_l/unrothum_r3_l/speed	/jointset/unrothum_l/unrothum_r2_l/value	/jointset/unrothum_l/unrothum_r2_l/speed	/jointset/shoulder0_l/elv_angle_l/value	/jointset/shoulder0_l/elv_angle_l/speed	/jointset/shoulder1_l/shoulder_elv_l/value	/jointset/shoulder1_l/shoulder_elv_l/speed	/jointset/shoulder1_l/shoulder1_r2_l/value	/jointset/shoulder1_l/shoulder1_r2_l/speed	/jointset/shoulder2_l/shoulder_rot_l/value	/jointset/shoulder2_l/shoulder_rot_l/speed	/jointset/elbow_l/elbow_flexion_l/value	/jointset/elbow_l/elbow_flexion_l/speed	/jointset/elbow_l/elbow_x_l/value	/jointset/elbow_l/elbow_x_l/speed	/jointset/elbow_l/elbow_y_l/value	/jointset/elbow_l/elbow_y_l/speed	/jointset/radioulnar_l/pro_sup_l/value	/jointset/radioulnar_l/pro_sup_l/speed	/jointset/radiocarpal_l/deviation_l/value	/jointset/radiocarpal_l/deviation_l/speed	/jointset/radiocarpal_l/flexion_l/value	/jointset/radiocarpal_l/flexion_l/speed	/jointset/CMC1a_l/thumb_l_abd/value	/jointset/CMC1a_l/thumb_l_abd/speed	/jointset/CMC1a_l/thumb_l_flex/value	/jointset/CMC1a_l/thumb_l_flex/speed	/jointset/MCP_l/TCP2M_l_lateral/value	/jointset/MCP_l/TCP2M_l_lateral/speed	/jointset/MCP_l/TCP2M_l_flex/value	/jointset/MCP_l/TCP2M_l_flex/speed	/jointset/IP_l/TCP2M2_l_flex/value	/jointset/IP_l/TCP2M2_l_flex/speed	/jointset/2MCP_l/MCP2_l_lateral/value	/jointset/2MCP_l/MCP2_l_lateral/speed	/jointset/2MCP_l/MCP2_l_flex/value	/jointset/2MCP_l/MCP2_l_flex/speed	/jointset/2prox-midph_l/PIP_l_flex/value	/jointset/2prox-midph_l/PIP_l_flex/speed	/jointset/2mid-distph_l/DIP_l_flex/value	/jointset/2mid-distph_l/DIP_l_flex/speed	/jointset/3MCP_l/MCP2M_l_lateral/value	/jointset/3MCP_l/MCP2M_l_lateral/speed	/jointset/3MCP_l/MCP2M_l_flex/value	/jointset/3MCP_l/MCP2M_l_flex/speed	/jointset/3prox-midph_l/MPIP_l_flex/value	/jointset/3prox-midph_l/MPIP_l_flex/speed	/jointset/3mid-distph_l/MDIP_l_flex/value	/jointset/3mid-distph_l/MDIP_l_flex/speed	/jointset/4MCP_l/RCP2M_l_lateral/value	/jointset/4MCP_l/RCP2M_l_lateral/speed	/jointset/4MCP_l/RCP2M_l_flex/value	/jointset/4MCP_l/RCP2M_l_flex/speed	/jointset/4prox-midph_l/RPIP_l_flex/value	/jointset/4prox-midph_l/RPIP_l_flex/speed	/jointset/4mid-distph_l/RDIP_l_flex/value	/jointset/4mid-distph_l/RDIP_l_flex/speed	/jointset/5MCP_l/LCP2M_l_lateral/value	/jointset/5MCP_l/LCP2M_l_lateral/speed	/jointset/5MCP_l/LCP2M_l_flex/value	/jointset/5MCP_l/LCP2M_l_flex/speed	/jointset/5prox-midph_l/LPIP_l_flex/value	/jointset/5prox-midph_l/LPIP_l_flex/speed	/jointset/5mid-distph_l/LDIP_l_flex/value	/jointset/5mid-distph_l/LDIP_l_flex/speed	/jointset/T1_rib/ribs_bending/value	/jointset/T1_rib/ribs_bending/speed	/forceset/glut_med1_r/activation	/forceset/glut_med1_r/fiber_length	/forceset/glut_med2_r/activation	/forceset/glut_med2_r/fiber_length	/forceset/glut_med3_r/activation	/forceset/glut_med3_r/fiber_length	/forceset/glut_min1_r/activation	/forceset/glut_min1_r/fiber_length	/forceset/glut_min2_r/activation	/forceset/glut_min2_r/fiber_length	/forceset/glut_min3_r/activation	/forceset/glut_min3_r/fiber_length	/forceset/semimem_r/activation	/forceset/semimem_r/fiber_length	/forceset/semiten_r/activation	/forceset/semiten_r/fiber_length	/forceset/bifemlh_r/activation	/forceset/bifemlh_r/fiber_length	/forceset/bifemsh_r/activation	/forceset/bifemsh_r/fiber_length	/forceset/sar_r/activation	/forceset/sar_r/fiber_length	/forceset/add_long_r/activation	/forceset/add_long_r/fiber_length	/forceset/add_brev_r/activation	/forceset/add_brev_r/fiber_length	/forceset/add_mag1_r/activation	/forceset/add_mag1_r/fiber_length	/forceset/add_mag2_r/activation	/forceset/add_mag2_r/fiber_length	/forceset/add_mag3_r/activation	/forceset/add_mag3_r/fiber_length	/forceset/tfl_r/activation	/forceset/tfl_r/fiber_length	/forceset/pect_r/activation	/forceset/pect_r/fiber_length	/forceset/grac_r/activation	/forceset/grac_r/fiber_length	/forceset/glut_max1_r/activation	/forceset/glut_max1_r/fiber_length	/forceset/glut_max2_r/activation	/forceset/glut_max2_r/fiber_length	/forceset/glut_max3_r/activation	/forceset/glut_max3_r/fiber_length	/forceset/iliacus_r/activation	/forceset/iliacus_r/fiber_length	/forceset/psoas_r/activation	/forceset/psoas_r/fiber_length	/forceset/quad_fem_r/activation	/forceset/quad_fem_r/fiber_length	/forceset/gem_r/activation	/forceset/gem_r/fiber_length	/forceset/peri_r/activation	/forceset/peri_r/fiber_length	/forceset/rect_fem_r/activation	/forceset/rect_fem_r/fiber_length	/forceset/vas_med_r/activation	/forceset/vas_med_r/fiber_length	/forceset/vas_int_r/activation	/forceset/vas_int_r/fiber_length	/forceset/vas_lat_r/activation	/forceset/vas_lat_r/fiber_length	/forceset/med_gas_r/activation	/forceset/med_gas_r/fiber_length	/forceset/lat_gas_r/activation	/forceset/lat_gas_r/fiber_length	/forceset/soleus_r/activation	/forceset/soleus_r/fiber_length	/forceset/tib_post_r/activation	/forceset/tib_post_r/fiber_length	/forceset/flex_dig_r/activation	/forceset/flex_dig_r/fiber_length	/forceset/flex_hal_r/activation	/forceset/flex_hal_r/fiber_length	/forceset/tib_ant_r/activation	/forceset/tib_ant_r/fiber_length	/forceset/per_brev_r/activation	/forceset/per_brev_r/fiber_length	/forceset/per_long_r/activation	/forceset/per_long_r/fiber_length	/forceset/per_tert_r/activation	/forceset/per_tert_r/fiber_length	/forceset/ext_dig_r/activation	/forceset/ext_dig_r/fiber_length	/forceset/ext_hal_r/activation	/forceset/ext_hal_r/fiber_length	/forceset/glut_med1_l/activation	/forceset/glut_med1_l/fiber_length	/forceset/glut_med2_l/activation	/forceset/glut_med2_l/fiber_length	/forceset/glut_med3_l/activation	/forceset/glut_med3_l/fiber_length	/forceset/glut_min1_l/activation	/forceset/glut_min1_l/fiber_length	/forceset/glut_min2_l/activation	/forceset/glut_min2_l/fiber_length	/forceset/glut_min3_l/activation	/forceset/glut_min3_l/fiber_length	/forceset/semimem_l/activation	/forceset/semimem_l/fiber_length	/forceset/semiten_l/activation	/forceset/semiten_l/fiber_length	/forceset/bifemlh_l/activation	/forceset/bifemlh_l/fiber_length	/forceset/bifemsh_l/activation	/forceset/bifemsh_l/fiber_length	/forceset/sar_l/activation	/forceset/sar_l/fiber_length	/forceset/add_long_l/activation	/forceset/add_long_l/fiber_length	/forceset/add_brev_l/activation	/forceset/add_brev_l/fiber_length	/forceset/add_mag1_l/activation	/forceset/add_mag1_l/fiber_length	/forceset/add_mag2_l/activation	/forceset/add_mag2_l/fiber_length	/forceset/add_mag3_l/activation	/forceset/add_mag3_l/fiber_length	/forceset/tfl_l/activation	/forceset/tfl_l/fiber_length	/forceset/pect_l/activation	/forceset/pect_l/fiber_length	/forceset/grac_l/activation	/forceset/grac_l/fiber_length	/forceset/glut_max1_l/activation	/forceset/glut_max1_l/fiber_length	/forceset/glut_max2_l/activation	/forceset/glut_max2_l/fiber_length	/forceset/glut_max3_l/activation	/forceset/glut_max3_l/fiber_length	/forceset/iliacus_l/activation	/forceset/iliacus_l/fiber_length	/forceset/psoas_l/activation	/forceset/psoas_l/fiber_length	/forceset/quad_fem_l/activation	/forceset/quad_fem_l/fiber_length	/forceset/gem_l/activation	/forceset/gem_l/fiber_length	/forceset/peri_l/activation	/forceset/peri_l/fiber_length	/forceset/rect_fem_l/activation	/forceset/rect_fem_l/fiber_length	/forceset/vas_med_l/activation	/forceset/vas_med_l/fiber_length	/forceset/vas_int_l/activation	/forceset/vas_int_l/fiber_length	/forceset/vas_lat_l/activation	/forceset/vas_lat_l/fiber_length	/forceset/med_gas_l/activation	/forceset/med_gas_l/fiber_length	/forceset/lat_gas_l/activation	/forceset/lat_gas_l/fiber_length	/forceset/soleus_l/activation	/forceset/soleus_l/fiber_length	/forceset/tib_post_l/activation	/forceset/tib_post_l/fiber_length	/forceset/flex_dig_l/activation	/forceset/flex_dig_l/fiber_length	/forceset/flex_hal_l/activation	/forceset/flex_hal_l/fiber_length	/forceset/tib_ant_l/activation	/forceset/tib_ant_l/fiber_length	/forceset/per_brev_l/activation	/forceset/per_brev_l/fiber_length	/forceset/per_long_l/activation	/forceset/per_long_l/fiber_length	/forceset/per_tert_l/activation	/forceset/per_tert_l/fiber_length	/forceset/ext_dig_l/activation	/forceset/ext_dig_l/fiber_length	/forceset/ext_hal_l/activation	/forceset/ext_hal_l/fiber_length	/forceset/ercspn_r/activation	/forceset/ercspn_r/fiber_length	/forceset/ercspn_l/activation	/forceset/ercspn_l/fiber_length	/forceset/intobl_r/activation	/forceset/intobl_r/fiber_length	/forceset/intobl_l/activation	/forceset/intobl_l/fiber_length	/forceset/extobl_r/activation	/forceset/extobl_r/fiber_length	/forceset/extobl_l/activation	/forceset/extobl_l/fiber_length
      0.00830000	      0.04602031	      0.00000000	     -0.00762478	      0.00000000	     -0.00236981	      0.00000000	      0.10789204	      0.00000000	      0.00481270	      0.00000000	     -0.00002378	      0.00000000	     -0.06924427	      0.00000000	      0.00000000	      0.00000000	      0.00000000	      0.00000000	      0.04667218	      0.00000000	      0.00000000	      0.00000000	      0.00000000	      0.00000000	      0.02910140	      0.00000000	      0.00000000	      0.00000000	      0.00000000	      0.00000000	      0.02428910	      0.00000000	      0.00000000	      0.00000000	      0.00000000	      0.00000000	      0.02070456	      0.00000000	      0.00000000	      0.00000000	      0.00000000	      0.00000000	      0.02080672	      0.00000000	      0.00000000	      0.00000000	      0.00000000	      0.00000000	      0.01774170	      0.00000000	      0.00000000	      0.00000000	      0.00000000	      0.00000000	      0.01615365	      0.00000000	      0.00000000	      0.00000000	      0.00000000	      0.00000000	     -0.32811657	      0.00000000	      0.00000000	      0.00000000	      0.00000000	      0.00000000	      0.01124401	      0.00000000	      0.01823006	      0.00000000	     -0.08266863	      0.00000000	     -0.08097067	      0.00000000	     -0.00847997	      0.00000000	     -0.00399278	      0.00000000	      0.01890204	      0.00000000	      0.09083269	      0.00000000	     -0.13029071	      0.00000000	      0.02980010	      0.00000000	      0.01055887	      0.00000000	     -0.09017932	      0.00000000	     -0.10831407	      0.00000000	     -0.00930943	      0.00000000	     -0.00838693	      0.00000000	      0.08706360	      0.00000000	      0.07969267	      0.00000000	     -0.12966115	      0.00000000	      0.00243773	      0.00000000	      0.00094666	      0.00000000	     -0.00007032	      0.00000000	     -0.36386409	      0.00000000	      0.15411566	      0.00000000	     -0.15411566	      0.00000000	      0.36386409	      0.00000000	     -0.07367508	      0.00000000	      0.59541606	      0.00000000	      0.26763542	      0.00000000	     -0.26763542	      0.00000000	     -0.59541606	      0.00000000	      0.07367508	      0.00000000	     -0.27854162	      0.00000000	      1.50356726	      0.00000000	      0.27854162	      0.00000000	     -0.13309887	      0.00000000	      0.13678163	      0.00000000	      0.03405082	      0.00000000	      0.00000000	      0.00000000	     -0.04424561	      0.00000000	     -0.02167154	      0.00000000	      0.04694736	      0.00000000	     -0.05970748	      0.00000000	     -0.42803131	      0.00000000	      0.00506175	      0.00000000	     -0.43973248	      0.00000000	     -0.19626145	      0.00000000	      0.12532378	      0.00000000	     -0.02884886	      0.00000000	     -0.04691543	      0.00000000	     -0.02767314	      0.00000000	      0.00600913	      0.00000000	     -0.02356502	      0.00000000	     -0.05585723	      0.00000000	     -0.05054843	      0.00000000	     -0.09518109	      0.00000000	     -0.11859058	      0.00000000	     -0.06997836	      0.00000000	     -0.02711800	      0.00000000	     -0.53340231	      0.00000000	     -0.14930143	      0.00000000	     -0.10410871	      0.00000000	     -0.04685912	      0.00000000	     -0.36770569	      0.00000000	      0.15574278	      0.00000000	     -0.15574278	      0.00000000	      0.36770569	      0.00000000	     -0.07445292	      0.00000000	      0.60170233	      0.00000000	      0.27046106	      0.00000000	     -0.27046106	      0.00000000	     -0.60170233	      0.00000000	      0.07445292	      0.00000000	     -0.27899044	      0.00000000	      1.51944160	      0.00000000	      0.00874051	      0.00000000	      0.00880445	      0.00000000	      0.14036834	      0.00000000	      0.03404831	      0.00000000	      0.00000000	      0.00000000	      0.07656358	      0.00000000	     -0.03363195	      0.00000000	      0.07253482	      0.00000000	     -0.11169616	      0.00000000	     -0.39480349	      0.00000000	     -0.03397476	      0.00000000	     -0.38679083	      0.00000000	     -0.18120769	      0.00000000	      0.14920489	      0.00000000	      0.03776452	      0.00000000	     -0.01678627	      0.00000000	     -0.01504182	      0.00000000	      0.01781893	      0.00000000	      0.02071103	      0.00000000	     -0.03222614	      0.00000000	     -0.03378900	      0.00000000	     -0.03561524	      0.00000000	     -0.09575366	      0.00000000	     -0.05954775	      0.00000000	     -0.02396979	      0.00000000	     -0.54928563	      0.00000000	     -0.17568052	      0.00000000	     -0.10328430	      0.00000000	     -0.03834403	      0.00000000	      0.04048211	      0.00000000	      0.05000000	      0.10000000	      0.05000000	      0.10000000	      0.05000000	      0.10000000	      0.05000000	      0.10000000	      0.05000000	      0.10000000	      0.05000000	      0.10000000	      0.05000000	      0.10000000	      0.05000000	      0.10000000	      0.05000000	      0.10000000	      0.05000000	      0.10000000	      0.05000000	      0.10000000	      0.05000000	      0.10000000	      0.05000000	      0.10000000	      0.05000000	      0.10000000	      0.05000000	      0.10000000	      0.05000000	      0.10000000	      0.05000000	      0.10000000	      0.05000000	      0.10000000	      0.05000000	      0.10000000	      0.05000000	      0.10000000	      0.05000000	      0.10000000	      0.05000000	      0.10000000	      0.05000000	      0.10000000	      0.05000000	      0.10000000	      0.05000000	      0.10000000	      0.05000000	      0.10000000	      0.05000000	      0.10000000	      0.05000000	      0.10000000	      0.05000000	      0.10000000	      0.05000000	      0.10000000	      0.05000000	      0.10000000	      0.05000000	      0.10000000	      0.05000000	      0.10000000	      0.05000000	      0.10000000	      0.05000000	      0.10000000	      0.05000000	      0.10000000	      0.05000000	      0.10000000	      0.05000000	      0.10000000	      0.05000000	      0.10000000	      0.05000000	      0.10000000	      0.05000000	      0.10000000	      0.05000000	      0.10000000	      0.05000000	      0.10000000	      0.05000000	      0.10000000	      0.05000000	      0.10000000	      0.05000000	      0.10000000	      0.05000000	      0.10000000	      0.05000000	      0.10000000	      0.05000000	      0.10000000	      0.05000000	      0.10000000	      0.05000000	      0.10000000	      0.05000000	      0.10000000	      0.05000000	      0.10000000	      0.05000000	      0.10000000	      0.05000000	      0.10000000	      0.05000000	      0.10000000	      0.05000000	      0.10000000	      0.05000000	      0.10000000	      0.05000000	      0.10000000	      0.05000000	      0.10000000	      0.05000000	      0.10000000	      0.05000000	      0.10000000	      0.05000000	      0.10000000	      0.05000000	      0.10000000	      0.05000000	      0.10000000	      0.05000000	      0.10000000	      0.05000000	      0.10000000	      0.05000000	      0.10000000	      0.05000000	      0.10000000	      0.05000000	      0.10000000	      0.05000000	      0.10000000	      0.05000000	      0.10000000	      0.05000000	      0.10000000	      0.05000000	      0.10000000	      0.05000000	      0.10000000	      0.05000000	      0.10000000	      0.05000000	      0.10000000	      0.05000000	      0.10000000	      0.05000000	      0.10000000	      0.05000000	      0.10000000	      0.05000000	      0.10000000	      0.05000000	      0.10000000	      0.05000000	      0.10000000	      0.05000000	      0.10000000	      0.05000000	      0.10000000	      0.05000000	      0.10000000	      0.05000000	      0.10000000	      0.05000000	      0.10000000	      0.05000000	      0.10000000	      0.05000000	      0.10000000	      0.05000000	      0.10000000	      0.05000000	      0.10000000
